<svg xmlns="http://www.w3.org/2000/svg" viewBox="0 0 146 52.5"><style>.st0{clip-path:url(#SVGID_2_);fill-rule:evenodd;clip-rule:evenodd;fill:#242C65;} .st1{clip-path:url(#SVGID_2_);fill:none;stroke:#CECBCA;stroke-width:0.576;stroke-linejoin:round;stroke-miterlimit:10;} .st2{clip-path:url(#SVGID_2_);fill:#FFFFFF;} .st3{clip-path:url(#SVGID_2_);fill:#D11447;} .st4{clip-path:url(#SVGID_2_);fill:#D5A619;} .st5{clip-path:url(#SVGID_2_);fill:#242C65;} .st6{clip-path:url(#SVGID_2_);fill-rule:evenodd;clip-rule:evenodd;fill:#D11447;} .st7{clip-path:url(#SVGID_2_);fill-rule:evenodd;clip-rule:evenodd;fill:#D5A619;} .st8{clip-path:url(#SVGID_2_);} .st9{fill:#080504;} .st10{fill:#242C65;} .st11{fill:#CECBCA;} .st12{fill:#D11447;} .st13{fill:#CC9A2C;} .st14{fill:#FFFFFF;} .st15{fill:none;}</style><g id="Layer_6"><path class="st15" d="M0 0h146v52.5H0z"/><path class="st14" d="M18.7 2c-.5 0-.9.4-1.2 1.1l-5.2 11.3c-.3.7-.6 1.5-.9 2.2H9.5l-5.9-13C3.3 3 2.9 2 2 2l-1-.1v-.8c1.6 0 2.9.1 3.9.1s2.2 0 4.1-.1v.8L7.7 2c-.4 0-.6.2-.6.4 0 .5.3 1.1.5 1.6l3.9 8.7 3.5-8c.4-.9.8-1.8.8-2.2 0-.4-.4-.6-.9-.6l-1.1-.1v-.7c1.2 0 2.2.1 2.9.1.7 0 1.6 0 2.9-.1v.8l-.9.1zm14.9 2.5l-.2-1.7c0-.3-1.7-.4-2.9-.4-1.1 0-2.1 0-3.2.1v5.4h3.3c.9 0 1.4 0 1.4-.5l.1-1.3h1c0 .8-.1 1.6-.1 2.4 0 .8 0 1.6.1 2.4h-1L32 9.8c-.1-.6-.5-.8-1.4-.8H29c-.5 0-1.1 0-1.7.1v6c1 0 2.1.1 3.2.1s3-.2 3-.4l.6-2.1h1l-.3 3.6-.1.2c-1.6.1-4.5.1-6.1.1-1 0-2-.1-3.1-.1-1 0-2.1 0-3 .1V16l.8-.4c.4-.2.5-.6.5-1.3V4.2c0-.9 0-1.6-.2-1.8-.1-.2-.4-.3-1-.4l-.9-.1v-.8c1.6 0 2.9.1 3.9.1 2.3 0 4 0 5.4-.1 1.4 0 2.5 0 3.6.1l.1.2-.3 3.2h-.8zm19.1.3h-1l-.1-1.6c0-.2-.1-.4-.2-.5-.2-.2-.9-.2-1.5-.2H47v10.9c0 1 0 1.6.2 1.8.1.2.4.3 1 .3l.9.1v.9c-1 0-2.4-.1-3.9-.1s-2.9 0-3.9.1v-.9l.9-.1c.6 0 .9-.1 1-.3.1-.3.2-.9.2-1.8V2.5h-2.9c-.7 0-1.4 0-1.5.2-.1.1-.2.3-.2.5l-.1 1.6h-1c0-1.5-.1-2.5-.3-3.6l.1-.1c2.6 0 5.2.1 7.7.1s5.1 0 7.7-.1l.1.1c-.2 1.1-.3 2.1-.3 3.6zm14.4-.3l-.2-1.7c-.1-.3-1.7-.4-2.9-.4-1.1 0-2.1 0-3.2.1v5.4h3.3c.9 0 1.4 0 1.4-.5l.1-1.3h1c0 .8-.1 1.6-.1 2.4 0 .8.1 1.6.1 2.4h-1l-.1-1.1c-.1-.6-.5-.8-1.4-.8h-1.6c-.5 0-1.1 0-1.7.1v6c1 0 2.1.1 3.2.1s3-.2 3-.4l.6-2.1h1l-.3 3.6-.1.2c-1.6.1-4.5.1-6.1.1-1 0-2-.1-3.1-.1-1 0-2.1 0-3 .1V16l.8-.4c.4-.2.5-.6.5-1.3V4.2c0-.9 0-1.6-.2-1.8-.1-.2-.4-.3-1-.4l-.9-.1v-.8c1.6 0 2.9.1 3.9.1 2.3 0 4 0 5.4-.1 1.4 0 2.5 0 3.6.1l.1.2-.2 3.1h-.9zm18.5 12c-.7 0-1.5 0-2.2.1l-5.6-7.8.2-.5c2.3.2 4-1.1 4-3.2 0-1.9-1.4-2.8-3.4-2.8-.5 0-1.2 0-1.6.2v11c0 1 0 1.6.2 1.8.1.2.4.3 1 .3l.9.1v.9c-1 0-2.4-.1-3.9-.1s-2.9 0-3.9.1v-.9l.9-.1c.6 0 .9-.1 1-.3.2-.3.2-.9.2-1.8V4.2c0-.9 0-1.6-.2-1.8-.1-.2-.4-.3-1-.4l-.9-.1v-.8c1.6 0 2.9.1 4.2.1 1.7 0 3.4 0 5-.1 2.5 0 4.9.7 4.9 3.3 0 2-1.6 3.3-3.7 4l4.5 6.2c.2.2.4.5.7.7.2.2.5.2 1 .3v.9h-2.3zm18.6 0c-1 0-2.2 0-3.9.1v-.8l1.3-.1c.4 0 .7-.5.3-1.2l-1.1-2.6h-6.2l-1 2.5c-.3.9.1 1.3.6 1.3l1.2.1v.8c-1.2 0-2.1-.1-2.8-.1-.7 0-1.6 0-2.8.1v-.8l.7-.1c.6-.1 1.1-.7 1.4-1.4l4.5-9.9.6-1.6.4-.9.5-.9h1.8l6.4 13.7c.3.6.6.9 1.4 1l.6.1v.8c-1.7-.1-2.9-.1-3.9-.1zM97.8 4.8l-2.5 5.7h5.1l-2.6-5.7zM128.4 2c-.6 0-.9.2-1 .4-.1.3-.2.9-.2 1.8v10.3c0 .8 0 1.6.1 2.3l-.2.1-2-.3c-1-1-2.1-2.1-3-3.1L114 4.6h-.1v8.8c0 1 0 1.6.2 1.8.1.2.4.3 1 .4l.9.1v.8c-.9 0-1.9-.1-2.8-.1-.9 0-1.9 0-2.9.1v-.8l.9-.1c.6 0 .9-.2 1-.4.1-.3.2-.9.2-1.8V4.2c0-.9 0-1.6-.2-1.8-.1-.2-.4-.3-1-.4l-.9-.1v-.8c1 0 2 .1 3 .1.7 0 1.4 0 2.1-.1.8 1 1.7 2.1 2.6 3l7.8 8.2V4.2c0-.9 0-1.6-.2-1.8-.1-.2-.4-.3-1-.4l-.9-.1v-.8c.9 0 1.9.1 2.9.1.9 0 1.9 0 2.8-.1v.8l-1 .1zm14.2 3l-.1-1.9c-.7-.8-2.1-1.2-3.3-1.2-2.3 0-3.4 1.2-3.4 2.7 0 1 .8 1.8 2.6 2.2l2.8.7c2.3.5 3.8 1.9 3.8 3.9 0 3.8-3.5 5.4-7.3 5.4-1.8 0-3.6-.3-5.2-1 .3-1.3.4-2.6.4-3.9h1l.2 2c.7 1 2.6 1.7 3.9 1.7 2.1 0 3.9-1 3.9-3 0-1-.6-1.7-2.1-2.1l-3.5-.9c-2.1-.6-3.6-1.9-3.6-3.8 0-3.6 3-5 6.6-5 1.5 0 3.2.2 4.6.8l.1.3c-.2.7-.3 2-.3 3.2h-1.1zM14.3 37.7l-.1.1c-1.3.1-3.8.1-5.1.1-.8 0-1.7-.1-2.5-.1-.9 0-1.7 0-2.5.1v-.4l.7-.3c.3-.2.4-.5.4-1.1v-8.4c0-.8 0-1.3-.1-1.5-.1-.2-.3-.2-.8-.3l-.8-.1V25c.8 0 2 .1 3.2.1C7.9 25 9 25 9.9 25v.8l-.8.1c-.5 0-.8.1-.8.3-.1.2-.1.7-.1 1.5v9.1c.9 0 1.8.1 2.7.1 1 0 2.5-.2 2.5-.3l.5-1.9h.8l-.4 3zm7.1-.9c.1.2.3.2.9.3l.8.1v.8c-.8 0-2-.1-3.2-.1-1.2 0-2.4 0-3.2.1v-.8l.8-.1c.5 0 .8-.1.8-.3.1-.2.1-.7.1-1.5v-7.7c0-.8 0-1.3-.1-1.5-.1-.2-.3-.2-.8-.3l-.8-.1V25c.8 0 2 .1 3.2.1 1.2 0 2.4 0 3.2-.1v.8l-.8.1c-.5 0-.8.1-.9.3-.1.2-.1.7-.1 1.5v7.7c0 .7 0 1.2.1 1.4zm13.8-8.9h-.7l-.2-1.4c0-.3-1.4-.4-2.4-.4-.6 0-1.5 0-2.3.1v4.6h2.5c.7 0 1.1 0 1.2-.4l.1-1h.8c0 .6-.1 1.3-.1 1.9 0 .7 0 1.4.1 2h-.8l-.1-.9c-.1-.5-.5-.7-1.2-.7H31c-.5 0-.9 0-1.4.1v3.5c0 .8 0 1.3.1 1.5.1.2.3.2.8.3l1 .1v.8c-1.1 0-2.2-.1-3.4-.1-1.2 0-2.4 0-3.2.1v-.8l.8-.1c.5 0 .8-.1.8-.3.1-.2.1-.7.1-1.5v-7.7c0-.8 0-1.3-.1-1.5-.1-.2-.3-.3-.8-.3l-.8-.1V25c1.4 0 2.4.1 3.2.1 1.6 0 3 0 4.2-.1 1.2 0 2.1 0 3 .1l.1.1-.2 2.7zm11.9 0l-.2-1.4c0-.3-1.4-.4-2.4-.4-.9 0-1.8 0-2.7.1v4.5h2.8c.7 0 1.1 0 1.2-.4l.1-1.1h.8c0 .7-.1 1.3-.1 2s0 1.4.1 2H46l-.1-.9c-.1-.5-.5-.7-1.2-.7h-1.4c-.5 0-.9 0-1.4.1v5c.9 0 1.8.1 2.7.1 1 0 2.5-.2 2.5-.3l.5-1.8h.8l-.2 3-.2.1c-1.3.1-3.8.1-5.1.1-.8 0-1.7-.1-2.5-.1-.9 0-1.7 0-2.5.1v-.4l.7-.3c.3-.2.4-.5.4-1.1v-8.4c0-.8 0-1.3-.1-1.5-.1-.2-.3-.3-.8-.3l-.8-.1V25c1.4 0 2.4.1 3.2.1 1.9 0 3.4 0 4.5-.1 1.2 0 2.1 0 3 .1l.1.1-.3 2.7h-.7zm22.1.8h-.8l-.1-1.6c-1-1-2.3-1.3-3.7-1.3-3.4 0-5.3 2.2-5.3 5.2 0 3.4 2.2 5.9 6.1 5.9 1.2 0 2.9-.4 4-1l.2.2-.5.9c-1.4.8-3.1 1-4.8 1-4.7 0-8.2-2.4-8.2-6.9 0-4.3 3.9-6.5 8.3-6.5 1.7 0 3.1.1 5.1.9l.1.2c-.1.8-.3 2.2-.4 3zm12.2-.8l-.2-1.4c0-.3-1.4-.4-2.4-.4-.9 0-1.8 0-2.7.1v4.5H79c.7 0 1.1 0 1.2-.4l.1-1.1h.8c0 .7-.1 1.3-.1 2s0 1.4.1 2h-.8l-.1-.9c-.1-.5-.5-.7-1.2-.7h-1.4c-.5 0-.9 0-1.4.1v5c.9 0 1.8.1 2.7.1 1 0 2.5-.2 2.5-.3l.5-1.8h.8l-.2 3-.1.1c-1.3.1-3.8.1-5.1.1-.9 0-1.7-.1-2.5-.1-.9 0-1.7 0-2.5.1v-.4l.7-.3c.3-.2.4-.5.4-1.1v-8.4c0-.8 0-1.3-.1-1.5-.1-.2-.3-.3-.9-.3l-.8-.1V25c1.4 0 2.4.1 3.2.1 1.9 0 3.4 0 4.5-.1 1.2 0 2.1 0 3 .1l.1.1-.3 2.7h-.7zm18.3-2.2c-.5 0-.7.1-.9.3-.1.2-.1.7-.1 1.5v8.6c0 .7 0 1.3.1 1.9l-.1.1-1.7-.2c-.8-.9-1.7-1.8-2.5-2.6L87.8 28v7.4c0 .8 0 1.3.1 1.5.1.2.3.3.8.3l.8.1v.7c-.8 0-1.6-.1-2.4-.1-.8 0-1.6 0-2.4.1v-.7l.8-.1c.5 0 .7-.1.8-.3.1-.2.1-.7.1-1.5v-7.7c0-.8 0-1.3-.1-1.5-.1-.2-.3-.3-.8-.3l-.8-.1V25c.8 0 1.7.1 2.5.1.6 0 1.2 0 1.7-.1.7.8 1.4 1.7 2.1 2.5l6.5 6.9v-6.8c0-.8 0-1.3-.1-1.5-.1-.2-.3-.3-.8-.3l-.8-.1V25c.8 0 1.6.1 2.4.1.8 0 1.6 0 2.4-.1v.7h-.9zm15.2 2.4h-.8l-.1-1.3c0-.2-.1-.4-.2-.5-.1-.2-.7-.2-1.3-.2h-2.4v9.1c0 .8 0 1.3.1 1.5.1.2.3.2.9.3l.8.1v.8c-.8 0-2-.1-3.2-.1-1.2 0-2.4 0-3.2.1v-.8l.8-.1c.5 0 .8-.1.8-.3.1-.2.1-.7.1-1.5v-9.1h-2.4c-.6 0-1.1 0-1.3.2-.1.1-.2.2-.2.5l-.1 1.3h-.8c0-1.2-.1-2.1-.3-3l.1-.1c2.2 0 4.3.1 6.4.1 2.1 0 4.3 0 6.4-.1l.1.1c-.1.9-.1 1.8-.2 3zm11.8-.2l-.2-1.4c0-.3-1.4-.4-2.4-.4-.9 0-1.8 0-2.7.1v4.5h2.8c.7 0 1.1 0 1.2-.4l.1-1.1h.8c0 .7-.1 1.3-.1 2s0 1.4.1 2h-.8l-.1-.9c-.1-.5-.5-.7-1.2-.7h-1.4c-.5 0-.9 0-1.4.1v5c.9 0 1.8.1 2.7.1 1 0 2.5-.2 2.5-.3l.5-1.8h.8l-.2 3-.1.1c-1.3.1-3.8.1-5.1.1-.9 0-1.7-.1-2.5-.1-.9 0-1.7 0-2.5.1v-.4l.7-.3c.3-.2.4-.5.4-1.1v-8.4c0-.8 0-1.3-.1-1.5-.1-.2-.3-.3-.8-.3l-.8-.1V25c1.4 0 2.4.1 3.2.1 1.9 0 3.4 0 4.5-.1 1.2 0 2.1 0 3 .1l.1.1-.3 2.7h-.7zm15.2 9.9c-.6 0-1.2 0-1.9.1l-4.6-6.5.1-.3c1.9.2 3.3-.9 3.3-2.7 0-1.5-1.2-2.4-2.8-2.4-.4 0-1 0-1.3.2v9.2c0 .8 0 1.3.1 1.5.1.2.3.2.8.3l.8.1v.8c-.8 0-2-.1-3.2-.1-1.2 0-2.4 0-3.2.1v-.8l.8-.1c.5 0 .8-.1.8-.3.1-.2.1-.7.1-1.5v-7.7c0-.8 0-1.3-.1-1.5-.1-.2-.3-.3-.8-.3l-.8-.1V25c1.4 0 2.4.1 3.5.1 1.4 0 2.8 0 4.2-.1 2.1 0 4.1.5 4.1 2.8 0 1.7-1.4 2.8-3.1 3.3l3.8 5.2c.1.2.4.4.6.6.2.1.5.2.8.3v.8c-.7-.1-1.3-.2-2-.2z"/><path class="st12" d="M3 20h140.1v1.4H3z"/><path class="st13" d="M8.4 44h1.4l4.2 6.3V44h1v7.7h-1.3l-4.3-6.3v6.3h-1V44zm14.9 6.9c1.7 0 2.9-1.4 2.9-3s-1.2-3-2.9-3-2.9 1.4-2.9 3 1.2 3 2.9 3zm0 1c-2.2 0-4-1.8-4-4s1.7-4 4-4 4 1.8 4 4c0 2.4-1.8 4-4 4zm9.2-4.5h1.4c.8 0 1.6-.3 1.6-1.2 0-1-.8-1.2-1.6-1.2h-1.4v2.4zm-1-3.4h2.7c1.3 0 2.5.7 2.5 2.1 0 1.1-.9 1.9-1.9 2l2.2 3.5h-1.3l-1.9-3.4h-1.2v3.4h-1V44zm10.7 7.7h1V45h2.5v-1h-6v1h2.5v6.7zm7.3 0h1v-3.5h4v3.5h1V44h-1v3.2h-4V44h-1v7.7zM72.1 45c-.6-.8-1.7-1.2-2.7-1.2-2.3 0-4 1.8-4 4.1 0 2.2 1.8 4 3.9 4 1.1 0 2.3-.4 2.9-1.3l-.9-.7c-.5.7-1.2 1-2 1-1.7 0-2.9-1.3-2.9-3 0-1.6 1.1-3.1 2.9-3.1.7 0 1.4.3 1.9.9l.9-.7zm8.4 3.9l-1.4-3.5-1.4 3.5h2.8zM78.6 44h.9l3.3 7.7h-1.2l-.8-1.9h-3.6l-.8 1.9h-1.2l3.4-7.7zm9 3.4H89c.8 0 1.6-.3 1.6-1.2 0-1-.8-1.2-1.6-1.2h-1.4v2.4zM86.5 44h2.7c1.3 0 2.5.7 2.5 2.1 0 1.1-.9 1.9-1.9 2l2.2 3.5h-1.3l-1.9-3.4h-1.2v3.4h-1V44zm12.9 6.9c1.7 0 2.9-1.4 2.9-3s-1.2-3-2.9-3-2.9 1.4-2.9 3 1.2 3 2.9 3zm0 1c-2.2 0-4-1.8-4-4s1.7-4 4-4 4 1.8 4 4c0 2.4-1.8 4-4 4zm8.2-.2h4.6v-1h-3.5V44h-1v7.7zm8.3 0h1V44h-1v7.7zm5.7 0h1v-6.3l4.3 6.3h1.3V44h-1v6.3L123 44h-1.4v7.7zm15.6-2.8l-1.4-3.5-1.4 3.5h2.8zm-1.9-4.9h.9l3.3 7.7h-1.2l-.8-1.9h-3.6l-.8 1.9h-1.2l3.4-7.7z"/></g></svg>